<?xml version="1.0" encoding="iso-8859-1"?>
<!-- Generator: Adobe Illustrator 24.1.0, SVG Export Plug-In . SVG Version: 6.00 Build 0)  -->
<svg version="1.1" id="Layer_1" xmlns="http://www.w3.org/2000/svg" xmlns:xlink="http://www.w3.org/1999/xlink" x="0px" y="0px"
	 viewBox="0 0 200 200" style="enable-background:new 0 0 200 200;" xml:space="preserve">
<g>
	<path style="fill:#05FF00;" d="M154.726,60.834L154.726,60.834c-0.903,1.96-0.175,4.287,1.687,5.378
		c11.592,6.796,19.396,19.381,19.396,33.761c0,14.38-7.804,26.965-19.396,33.761c-1.862,1.092-2.59,3.418-1.687,5.378v0
		c1.046,2.27,3.82,3.116,5.975,1.851c14.053-8.249,23.49-23.516,23.49-40.99s-9.436-32.741-23.49-40.99
		C158.546,57.719,155.772,58.565,154.726,60.834z"/>
	<path style="fill:#05FF00;" d="M167.426,99.973c0-10.664-5.434-20.053-13.681-25.564c-2.124-1.419-5.021-0.551-6.09,1.769l0,0
		c-0.862,1.871-0.237,4.088,1.472,5.237c5.975,4.016,9.916,10.834,9.916,18.558c0,7.725-3.941,14.543-9.916,18.558
		c-1.71,1.149-2.334,3.366-1.472,5.237l0,0c1.069,2.32,3.966,3.188,6.09,1.769C161.992,120.027,167.426,110.637,167.426,99.973z"/>
</g>
<g>
	<path style="fill:#00FF00;" d="M70.041,89.393c0-1.814,0.521-3.424,1.565-4.83s2.484-2.508,4.32-3.309
		c1.836-0.8,3.942-1.201,6.318-1.201c1.151,0,2.285,0.1,3.401,0.297c1.116,0.198,2.088,0.478,2.916,0.837v-1.238
		c0-1.532-0.468-2.689-1.403-3.472c-0.937-0.783-2.358-1.175-4.267-1.175c-1.548,0-3.023,0.27-4.428,0.81s-2.881,1.314-4.428,2.322
		l-2.593-5.508c1.872-1.224,3.825-2.133,5.859-2.727c2.033-0.594,4.186-0.891,6.453-0.891c4.247,0,7.551,0.991,9.909,2.972
		c2.357,1.981,3.537,4.881,3.537,8.701v7.216c0,0.849,0.135,1.45,0.404,1.804c0.271,0.354,0.729,0.549,1.377,0.584v7.182
		c-0.72,0.18-1.386,0.297-1.998,0.351c-0.612,0.054-1.152,0.081-1.619,0.081c-1.62,0-2.845-0.324-3.673-0.972
		s-1.368-1.53-1.619-2.646l-0.217-1.242c-1.224,1.62-2.709,2.854-4.455,3.699s-3.573,1.269-5.48,1.269
		c-1.872,0-3.556-0.383-5.049-1.147c-1.494-0.765-2.673-1.823-3.537-3.175C70.473,92.631,70.041,91.101,70.041,89.393z
		 M87.213,90.417c0.396-0.314,0.72-0.672,0.972-1.074c0.252-0.401,0.378-0.759,0.378-1.074v-2.464
		c-0.721-0.279-1.53-0.498-2.43-0.655c-0.9-0.157-1.729-0.236-2.484-0.236c-1.548,0-2.844,0.35-3.888,1.049
		c-1.045,0.699-1.566,1.59-1.566,2.672c0,0.594,0.18,1.162,0.54,1.703c0.359,0.542,0.855,0.961,1.485,1.258s1.377,0.445,2.241,0.445
		s1.728-0.148,2.592-0.445S86.637,90.906,87.213,90.417z"/>
	<path style="fill:#00FF00;" d="M104.492,58.346h8.641v29.322c0,1.188,0.216,2.035,0.647,2.538c0.433,0.504,1.062,0.756,1.891,0.756
		c0.504,0,1.034-0.071,1.593-0.216c0.558-0.144,1.053-0.359,1.485-0.648l1.134,6.534c-1.08,0.468-2.322,0.864-3.727,1.188
		c-1.403,0.324-2.718,0.486-3.941,0.486c-2.484,0-4.393-0.656-5.725-1.971c-1.332-1.313-1.998-3.194-1.998-5.643V58.346z"/>
	<path style="fill:#00FF00;" d="M123.716,58.346h8.641v29.322c0,1.188,0.216,2.035,0.647,2.538c0.433,0.504,1.062,0.756,1.891,0.756
		c0.504,0,1.034-0.071,1.593-0.216c0.558-0.144,1.053-0.359,1.485-0.648l1.134,6.534c-1.08,0.468-2.322,0.864-3.727,1.188
		c-1.403,0.324-2.718,0.486-3.941,0.486c-2.484,0-4.393-0.656-5.725-1.971c-1.332-1.313-1.998-3.194-1.998-5.643V58.346z"/>
	<path style="fill:#00FF00;" d="M37.695,142.306c-2.412,0-4.555-0.383-6.426-1.147c-1.872-0.765-3.465-1.807-4.779-3.123
		c-1.314-1.317-2.313-2.84-2.997-4.565c-0.684-1.727-1.025-3.533-1.025-5.42c0-2.696,0.603-5.153,1.809-7.371
		c1.206-2.217,2.943-4,5.211-5.349c2.269-1.348,5.004-2.022,8.208-2.022s5.94,0.667,8.208,2c2.269,1.333,3.987,3.103,5.157,5.307
		c1.17,2.204,1.755,4.568,1.755,7.092c0,0.498-0.026,0.987-0.081,1.467c-0.054,0.48-0.1,0.897-0.135,1.253H31.647
		c0.072,1.226,0.414,2.257,1.026,3.097c0.611,0.841,1.385,1.47,2.322,1.89c0.936,0.421,1.907,0.63,2.916,0.63
		c1.331,0,2.564-0.306,3.698-0.918c1.135-0.612,1.898-1.422,2.295-2.43l7.345,2.105c-0.721,1.477-1.729,2.764-3.024,3.861
		c-1.296,1.099-2.835,1.98-4.617,2.646C41.826,141.973,39.855,142.306,37.695,142.306z M31.485,125.134h12.258
		c-0.107-1.145-0.45-2.141-1.025-2.99c-0.576-0.85-1.296-1.509-2.16-1.977s-1.872-0.703-3.024-0.703
		c-1.044,0-2.017,0.234-2.916,0.703s-1.619,1.119-2.159,1.951S31.594,123.955,31.485,125.134z"/>
	<path style="fill:#00FF00;" d="M56.108,133.394c0-1.814,0.521-3.424,1.566-4.83c1.044-1.405,2.483-2.508,4.32-3.309
		c1.836-0.8,3.941-1.201,6.317-1.201c1.152,0,2.286,0.1,3.402,0.297c1.115,0.198,2.087,0.478,2.916,0.837v-1.238
		c0-1.531-0.469-2.689-1.404-3.472c-0.937-0.783-2.358-1.175-4.266-1.175c-1.549,0-3.024,0.27-4.429,0.81
		c-1.403,0.54-2.88,1.315-4.428,2.322l-2.592-5.508c1.871-1.224,3.824-2.133,5.859-2.727c2.033-0.594,4.185-0.891,6.452-0.891
		c4.248,0,7.551,0.991,9.909,2.972c2.357,1.981,3.537,4.882,3.537,8.701v7.216c0,0.849,0.135,1.45,0.405,1.804
		c0.27,0.354,0.729,0.549,1.377,0.584v7.182c-0.721,0.18-1.387,0.297-1.998,0.352c-0.612,0.054-1.152,0.081-1.62,0.081
		c-1.62,0-2.844-0.324-3.672-0.973c-0.828-0.647-1.368-1.529-1.62-2.646l-0.216-1.242c-1.225,1.62-2.709,2.854-4.455,3.699
		c-1.747,0.845-3.573,1.269-5.481,1.269c-1.872,0-3.555-0.383-5.049-1.147s-2.673-1.823-3.537-3.175
		C56.541,136.632,56.108,135.102,56.108,133.394z M73.28,134.417c0.396-0.314,0.72-0.673,0.973-1.074
		c0.251-0.401,0.378-0.76,0.378-1.074v-2.464c-0.721-0.279-1.531-0.498-2.431-0.654c-0.899-0.157-1.728-0.236-2.483-0.236
		c-1.549,0-2.845,0.35-3.888,1.049c-1.045,0.698-1.566,1.59-1.566,2.672c0,0.594,0.18,1.162,0.54,1.703
		c0.359,0.542,0.854,0.962,1.485,1.259c0.629,0.297,1.377,0.445,2.24,0.445c0.864,0,1.729-0.148,2.593-0.445
		C71.984,135.3,72.704,134.906,73.28,134.417z"/>
	<path style="fill:#00FF00;" d="M108.651,120.813c-2.089,0-3.979,0.334-5.67,0.999c-1.693,0.667-2.916,1.647-3.673,2.943v17.01
		h-8.64V113.74h7.884v5.4c1.008-1.908,2.286-3.402,3.834-4.482s3.168-1.638,4.86-1.674c0.396,0,0.684,0,0.864,0
		c0.18,0,0.359,0.019,0.54,0.054V120.813z"/>
	<path style="fill:#00FF00;" d="M124.257,142.306c-2.413,0-4.762-0.405-7.048-1.215s-4.238-1.988-5.858-3.537l3.023-5.399
		c1.692,1.26,3.356,2.205,4.995,2.835c1.638,0.63,3.177,0.944,4.617,0.944c1.08,0,1.935-0.161,2.565-0.483
		c0.629-0.322,0.944-0.839,0.944-1.552c0-0.531-0.188-0.939-0.566-1.223c-0.378-0.284-0.928-0.559-1.647-0.825
		c-0.721-0.267-1.62-0.541-2.7-0.825c-2.159-0.744-3.96-1.444-5.399-2.101c-1.44-0.656-2.521-1.473-3.24-2.447
		c-0.721-0.976-1.08-2.244-1.08-3.805c0-1.88,0.486-3.521,1.458-4.922c0.972-1.401,2.33-2.492,4.077-3.272
		c1.746-0.78,3.843-1.171,6.291-1.171c1.944,0,3.852,0.306,5.724,0.918c1.872,0.613,3.618,1.656,5.238,3.132l-3.402,5.347
		c-1.584-1.115-3.016-1.926-4.293-2.431c-1.278-0.503-2.511-0.756-3.698-0.756c-0.613,0-1.171,0.071-1.675,0.212
		c-0.504,0.142-0.909,0.371-1.215,0.689c-0.306,0.318-0.459,0.76-0.459,1.325c0,0.494,0.153,0.909,0.459,1.245
		s0.792,0.618,1.458,0.848s1.485,0.486,2.457,0.769c2.376,0.707,4.347,1.396,5.913,2.067s2.735,1.52,3.51,2.544
		s1.161,2.366,1.161,4.027c0,2.826-1.044,5.043-3.132,6.65C130.646,141.503,127.82,142.306,124.257,142.306z"/>
</g>
<g>
</g>
<g>
</g>
<g>
</g>
<g>
</g>
<g>
</g>
<g>
</g>
<g>
</g>
<g>
</g>
<g>
</g>
<g>
</g>
<g>
</g>
<g>
</g>
<g>
</g>
<g>
</g>
<g>
</g>
</svg>
