<?xml version="1.0" encoding="iso-8859-1"?>
<!-- Generator: Adobe Illustrator 24.1.0, SVG Export Plug-In . SVG Version: 6.00 Build 0)  -->
<svg version="1.1" id="Layer_1" xmlns="http://www.w3.org/2000/svg" xmlns:xlink="http://www.w3.org/1999/xlink" x="0px" y="0px"
	 viewBox="0 0 200 200" style="enable-background:new 0 0 200 200;" xml:space="preserve">
<g>
	<path style="fill:#05FF00;" d="M154.455,60.998L154.455,60.998c-0.903,1.96-0.175,4.287,1.687,5.378
		c11.592,6.796,19.396,19.381,19.396,33.761c0,14.38-7.804,26.965-19.396,33.761c-1.862,1.092-2.59,3.418-1.687,5.378v0
		c1.046,2.27,3.82,3.116,5.975,1.851c14.053-8.249,23.49-23.516,23.49-40.99s-9.436-32.741-23.49-40.99
		C158.275,57.882,155.501,58.728,154.455,60.998z"/>
	<path style="fill:#05FF00;" d="M167.156,100.137c0-10.664-5.434-20.053-13.681-25.564c-2.124-1.419-5.021-0.551-6.09,1.769v0
		c-0.862,1.871-0.237,4.088,1.472,5.237c5.975,4.016,9.916,10.834,9.916,18.558c0,7.725-3.941,14.543-9.916,18.558
		c-1.71,1.149-2.334,3.366-1.472,5.237v0c1.069,2.32,3.966,3.188,6.09,1.769C161.722,120.19,167.156,110.8,167.156,100.137z"/>
</g>
<g id="all_ears__x28_outlines_x29_">
	<path style="fill:#00FF00;" d="M70.856,98.158c-1.406-1.583-2.108-3.68-2.108-6.292c0-1.97,0.409-3.746,1.229-5.329
		c0.819-1.583,2.479-2.916,4.98-4.001c2.501-1.084,6.076-1.627,10.725-1.627V78.95c0-1.151-0.365-2.003-1.096-2.557
		c-0.73-0.553-1.893-0.83-3.486-0.83c-1.328,0-2.468,0.139-3.42,0.415c-0.952,0.277-1.981,0.647-3.088,1.112
		c-0.576,0.266-0.93,0.398-1.062,0.398c-0.398,0-0.836-0.299-1.312-0.896c-0.476-0.598-0.891-1.284-1.245-2.059
		c-0.354-0.774-0.531-1.361-0.531-1.76c0-0.686,0.492-1.345,1.478-1.976c0.985-0.631,2.341-1.14,4.067-1.527
		c1.727-0.387,3.641-0.581,5.744-0.581c4.427,0,7.647,0.88,9.662,2.64c2.014,1.76,3.021,4.167,3.021,7.222v11.057
		c0,1.837,0.05,3.265,0.149,4.283c0.1,1.019,0.238,2.025,0.415,3.021c0.11,0.598,0.166,1.019,0.166,1.262
		c0,0.443-0.415,0.808-1.245,1.096c-0.83,0.288-1.776,0.498-2.839,0.631s-1.915,0.199-2.557,0.199c-0.687,0-1.179-0.293-1.478-0.88
		c-0.299-0.586-0.537-1.389-0.714-2.407c-0.022-0.133-0.044-0.266-0.066-0.398c-0.022-0.133-0.056-0.266-0.1-0.398
		c-0.222,0.421-0.692,0.985-1.411,1.693c-0.72,0.708-1.699,1.356-2.938,1.942c-1.24,0.586-2.679,0.88-4.316,0.88
		C74.469,100.532,72.261,99.741,70.856,98.158z M83.49,92.546c0.974-0.697,1.704-1.588,2.191-2.673V86.62
		c-5.512,0-8.268,1.45-8.268,4.35c0,0.775,0.26,1.406,0.78,1.893c0.52,0.487,1.245,0.73,2.175,0.73
		C81.475,93.592,82.516,93.244,83.49,92.546z"/>
	<path style="fill:#00FF00;" d="M107.078,98.158c-1.473-1.583-2.208-3.99-2.208-7.222V57.434c0-1.284,1.185-1.926,3.553-1.926h1.66
		c1.218,0,2.108,0.161,2.673,0.481c0.564,0.321,0.847,0.803,0.847,1.444v33.602c0,0.908,0.166,1.561,0.498,1.959
		s0.886,0.598,1.66,0.598c0.199,0,0.498-0.044,0.896-0.133c0.11-0.022,0.222-0.044,0.332-0.066c0.11-0.022,0.232-0.033,0.365-0.033
		c0.332,0,0.636,0.293,0.913,0.88c0.276,0.587,0.492,1.24,0.647,1.959c0.155,0.72,0.232,1.19,0.232,1.411
		c0,1.948-1.882,2.922-5.645,2.922C110.691,100.532,108.55,99.741,107.078,98.158z"/>
	<path style="fill:#00FF00;" d="M127.362,98.158c-1.472-1.583-2.208-3.99-2.208-7.222V57.434c0-1.284,1.184-1.926,3.553-1.926h1.66
		c1.217,0,2.108,0.161,2.673,0.481c0.564,0.321,0.847,0.803,0.847,1.444v33.602c0,0.908,0.166,1.561,0.498,1.959
		s0.885,0.598,1.66,0.598c0.199,0,0.498-0.044,0.896-0.133c0.11-0.022,0.221-0.044,0.332-0.066c0.11-0.022,0.232-0.033,0.365-0.033
		c0.332,0,0.637,0.293,0.913,0.88c0.276,0.587,0.492,1.24,0.647,1.959c0.154,0.72,0.232,1.19,0.232,1.411
		c0,1.948-1.882,2.922-5.645,2.922C130.976,100.532,128.834,99.741,127.362,98.158z"/>
	<path style="fill:#00FF00;" d="M27.18,140.365c-2.546-2.778-3.818-6.635-3.818-11.572c0-5.555,1.272-9.628,3.818-12.218
		c2.545-2.59,6.054-3.885,10.525-3.885c2.966,0,5.396,0.675,7.288,2.025c1.893,1.351,3.276,3.166,4.15,5.445
		c0.874,2.281,1.312,4.859,1.312,7.736c0,0.332-0.194,0.775-0.581,1.328c-0.388,0.555-0.825,1.053-1.312,1.494
		c-0.487,0.443-0.863,0.664-1.129,0.664H32.393c0.199,2.258,0.869,3.857,2.009,4.799c1.14,0.94,2.728,1.41,4.765,1.41
		c1.106,0,2.108-0.127,3.005-0.381c0.896-0.255,1.854-0.592,2.872-1.014c0.62-0.287,1.04-0.432,1.262-0.432
		c0.398,0,0.835,0.283,1.312,0.848c0.476,0.564,0.885,1.211,1.229,1.941c0.343,0.73,0.515,1.295,0.515,1.693
		c0,0.908-0.614,1.684-1.843,2.324c-1.229,0.643-2.679,1.129-4.35,1.461c-1.671,0.332-3.138,0.498-4.399,0.498
		C33.588,144.531,29.725,143.143,27.18,140.365z M41.955,125.572c0-1.814-0.354-3.27-1.062-4.365
		c-0.708-1.096-1.771-1.644-3.188-1.644c-2.922,0-4.693,2.003-5.312,6.009H41.955z"/>
	<path style="fill:#00FF00;" d="M60.032,142.158c-1.406-1.583-2.108-3.68-2.108-6.293c0-1.969,0.409-3.746,1.229-5.328
		c0.819-1.583,2.479-2.916,4.98-4.002c2.501-1.084,6.076-1.627,10.725-1.627v-1.959c0-1.15-0.365-2.002-1.096-2.556
		c-0.73-0.553-1.893-0.83-3.486-0.83c-1.328,0-2.468,0.139-3.42,0.415c-0.952,0.277-1.981,0.647-3.088,1.112
		c-0.576,0.266-0.93,0.398-1.062,0.398c-0.398,0-0.836-0.299-1.312-0.896c-0.476-0.598-0.891-1.284-1.245-2.059
		c-0.354-0.774-0.531-1.361-0.531-1.76c0-0.686,0.492-1.345,1.478-1.976c0.985-0.631,2.341-1.14,4.067-1.527
		c1.727-0.387,3.641-0.581,5.744-0.581c4.427,0,7.647,0.88,9.662,2.64c2.014,1.76,3.021,4.167,3.021,7.221v11.057
		c0,1.838,0.05,3.266,0.149,4.283c0.1,1.02,0.238,2.025,0.415,3.021c0.11,0.598,0.166,1.02,0.166,1.262
		c0,0.443-0.415,0.809-1.245,1.096c-0.83,0.289-1.776,0.498-2.839,0.631s-1.915,0.199-2.557,0.199c-0.687,0-1.179-0.293-1.478-0.879
		c-0.299-0.587-0.537-1.389-0.714-2.408c-0.022-0.133-0.044-0.266-0.066-0.398c-0.022-0.133-0.056-0.266-0.1-0.398
		c-0.222,0.422-0.692,0.986-1.411,1.693c-0.72,0.709-1.699,1.356-2.938,1.943c-1.24,0.586-2.679,0.879-4.316,0.879
		C63.645,144.531,61.437,143.74,60.032,142.158z M72.666,136.547c0.974-0.697,1.704-1.588,2.191-2.674v-3.254
		c-5.512,0-8.268,1.451-8.268,4.35c0,0.775,0.26,1.406,0.78,1.893c0.52,0.488,1.245,0.73,2.175,0.73
		C70.651,137.592,71.691,137.244,72.666,136.547z"/>
	<path style="fill:#00FF00;" d="M94.012,142.273v-18.727c0-2.833-0.188-5.19-0.564-7.072c-0.111-0.598-0.166-1.018-0.166-1.262
		c0-0.442,0.415-0.802,1.245-1.079c0.83-0.276,1.771-0.481,2.822-0.614c1.051-0.133,1.898-0.199,2.54-0.199
		c0.686,0,1.167,0.255,1.445,0.764c0.275,0.509,0.525,1.251,0.746,2.225l0.199,0.863c0.753-1.372,1.621-2.462,2.607-3.271
		c0.984-0.808,2.252-1.212,3.801-1.212c1.284,0,2.17,0.327,2.656,0.979c0.487,0.653,0.73,1.389,0.73,2.208
		c0,0.443-0.077,1.068-0.232,1.876c-0.154,0.808-0.376,1.522-0.664,2.142c-0.287,0.62-0.608,0.93-0.963,0.93
		c-0.243,0-0.608-0.066-1.096-0.199c-0.664-0.177-1.229-0.266-1.693-0.266c-1.084,0-2.031,0.305-2.838,0.914
		c-0.809,0.608-1.423,1.289-1.844,2.041v18.959c0,1.24-1.195,1.859-3.585,1.859h-1.627
		C95.185,144.133,94.012,143.514,94.012,142.273z"/>
	<path style="fill:#00FF00;" d="M121.701,144.033c-1.506-0.332-2.75-0.807-3.735-1.428c-0.985-0.619-1.478-1.328-1.478-2.125
		c0-0.486,0.177-1.096,0.531-1.826c0.354-0.73,0.78-1.366,1.278-1.908c0.498-0.543,0.935-0.814,1.312-0.814
		c0.199,0,0.631,0.156,1.295,0.465c0.774,0.355,1.516,0.643,2.225,0.863c0.708,0.223,1.516,0.332,2.424,0.332
		c1.129,0,1.98-0.209,2.557-0.631c0.575-0.42,0.863-1.039,0.863-1.859c0-0.619-0.172-1.134-0.515-1.543
		c-0.343-0.41-0.78-0.748-1.312-1.014s-1.284-0.586-2.258-0.963l-0.963-0.365c-1.262-0.486-2.369-1.039-3.32-1.66
		c-0.952-0.619-1.76-1.521-2.424-2.705c-0.664-1.185-0.996-2.684-0.996-4.5c0-2.014,0.438-3.746,1.312-5.196
		c0.874-1.45,2.119-2.557,3.735-3.32c1.615-0.764,3.52-1.146,5.711-1.146c1.262,0,2.578,0.122,3.951,0.365
		c1.372,0.244,2.529,0.62,3.47,1.129c0.94,0.509,1.411,1.151,1.411,1.926c0,0.443-0.139,1.041-0.415,1.793
		c-0.276,0.753-0.614,1.417-1.013,1.992c-0.398,0.576-0.775,0.863-1.129,0.863c-0.111,0-0.421-0.1-0.93-0.299
		c-0.687-0.288-1.345-0.515-1.976-0.681s-1.356-0.249-2.175-0.249c-2.081,0-3.121,0.687-3.121,2.058
		c0,0.621,0.193,1.152,0.581,1.594c0.388,0.443,0.868,0.809,1.444,1.096c0.575,0.289,1.383,0.631,2.424,1.029
		c1.195,0.488,1.937,0.797,2.225,0.93c1.549,0.775,2.795,1.799,3.735,3.072c0.94,1.272,1.411,2.971,1.411,5.096
		c0,2.016-0.454,3.785-1.361,5.312c-0.908,1.527-2.236,2.713-3.984,3.553c-1.749,0.842-3.83,1.262-6.242,1.262
		C124.723,144.531,123.206,144.365,121.701,144.033z"/>
</g>
<g>
</g>
<g>
</g>
<g>
</g>
<g>
</g>
<g>
</g>
<g>
</g>
<g>
</g>
<g>
</g>
<g>
</g>
<g>
</g>
<g>
</g>
<g>
</g>
<g>
</g>
<g>
</g>
<g>
</g>
</svg>
