<?xml version="1.0" encoding="iso-8859-1"?>
<!-- Generator: Adobe Illustrator 24.1.0, SVG Export Plug-In . SVG Version: 6.00 Build 0)  -->
<svg version="1.1" id="Layer_1" xmlns="http://www.w3.org/2000/svg" xmlns:xlink="http://www.w3.org/1999/xlink" x="0px" y="0px"
	 viewBox="0 0 331 263" style="enable-background:new 0 0 331 263;fill:#092c6a;" xml:space="preserve">
<g>
	<path d="M22.875,242.516c-8.453-7-12.688-16.188-12.688-27.594c0-30.594,7.094-61.766,21.234-93.5
		c14.156-31.734,30.844-58.109,50.047-79.109s35.312-31.5,48.344-31.5c9.438,0,18.312,1.547,26.609,4.641
		s12.453,7.906,12.453,14.406c0,6.188-1.797,13.688-5.359,22.469l-5.375,14.641c-8.141,20.844-14.812,42.328-20.016,64.453
		c-5.219,22.141-7.812,49.969-7.812,83.5c0,25.391-17.266,38.078-51.766,38.078H61.953C44.359,253,31.344,249.516,22.875,242.516z
		 M176.688,242.516c-8.469-7-12.688-16.188-12.688-27.594c0-30.594,7.078-61.766,21.234-93.5s30.844-58.109,50.047-79.109
		s35.312-31.5,48.344-31.5c9.438,0,18.312,1.547,26.609,4.641s12.453,7.906,12.453,14.406c0,6.188-1.797,13.688-5.359,22.469
		l-5.375,14.641c-8.141,20.844-14.812,42.328-20.016,64.453c-5.219,22.141-7.812,49.969-7.812,83.5
		c0,25.391-17.266,38.078-51.766,38.078h-16.594C198.172,253,185.156,249.516,176.688,242.516z"/>
</g>
<g>
</g>
<g>
</g>
<g>
</g>
<g>
</g>
<g>
</g>
<g>
</g>
<g>
</g>
<g>
</g>
<g>
</g>
<g>
</g>
<g>
</g>
<g>
</g>
<g>
</g>
<g>
</g>
<g>
</g>
</svg>
